<?xml version="1.0" standalone="no"?>
<!DOCTYPE svg PUBLIC "-//W3C//DTD SVG 20010904//EN"
 "http://www.w3.org/TR/2001/REC-SVG-20010904/DTD/svg10.dtd">
<svg version="1.0" xmlns="http://www.w3.org/2000/svg"
 width="700.000000pt" height="700.000000pt" viewBox="0 0 700.000000 700.000000"
 preserveAspectRatio="xMidYMid meet">
<metadata>
Created by potrace 1.14, written by Peter Selinger 2001-2017
</metadata>
<g transform="translate(0.000000,700.000000) scale(0.100000,-0.100000)"
fill="#000000" stroke="none">
<path d="M940 3841 c-6 -13 -10 -140 -10 -345 0 -282 2 -327 16 -340 14 -14
70 -16 473 -16 342 0 460 3 469 12 17 17 17 679 0 696 -9 9 -128 12 -475 12
-447 0 -463 -1 -473 -19z m940 -61 l0 -60 -465 0 -465 0 0 60 0 60 465 0 465
0 0 -60z m0 -330 l0 -260 -465 0 -465 0 0 260 0 260 465 0 465 0 0 -260z m0
-280 c0 -7 -162 -10 -465 -10 -303 0 -465 3 -465 10 0 7 162 10 465 10 303 0
465 -3 465 -10z"/>
<path d="M994 3796 c-9 -24 4 -48 23 -44 12 2 18 12 18 28 0 29 -32 41 -41 16z
m36 -17 c0 -5 -7 -9 -15 -9 -15 0 -20 12 -9 23 8 8 24 -1 24 -14z"/>
<path d="M1066 3794 c-4 -10 -1 -24 7 -31 19 -19 49 -5 45 21 -4 27 -43 34
-52 10z m42 -12 c2 -7 -3 -12 -12 -12 -9 0 -16 7 -16 16 0 17 22 14 28 -4z"/>
<path d="M1147 3803 c-13 -12 -7 -41 10 -47 21 -9 46 16 37 37 -6 17 -35 23
-47 10z m33 -18 c0 -8 -7 -15 -15 -15 -16 0 -20 12 -8 23 11 12 23 8 23 -8z"/>
<path d="M1127 3612 c-10 -10 -17 -23 -17 -28 0 -5 23 -32 50 -59 l50 -49 -50
-51 c-55 -55 -61 -78 -29 -96 19 -10 29 -3 95 62 41 41 74 78 74 84 0 10 -140
155 -151 155 -3 0 -13 -8 -22 -18z m95 -69 l68 -67 -67 -68 c-37 -38 -73 -68
-80 -68 -31 0 -21 27 31 79 l56 57 -55 54 c-42 41 -52 57 -43 67 6 7 13 13 16
13 4 0 37 -30 74 -67z"/>
<path d="M1297 3324 c-4 -4 -7 -20 -7 -36 l0 -28 106 0 105 0 -3 33 -3 32 -95
3 c-53 1 -99 0 -103 -4z m193 -34 c0 -19 -7 -20 -95 -20 -88 0 -95 1 -95 20 0
19 7 20 95 20 88 0 95 -1 95 -20z"/>
<path d="M4596 3724 c-9 -8 -16 -19 -16 -24 0 -11 29 -40 40 -40 25 0 40 15
40 40 0 39 -36 53 -64 24z"/>
<path d="M4420 3640 l0 -89 -37 25 c-32 22 -46 25 -91 22 -56 -5 -91 -25 -126
-72 -17 -21 -21 -42 -21 -96 0 -82 18 -113 86 -148 53 -28 116 -25 160 7 29
21 29 21 29 1 0 -16 7 -20 30 -20 l30 0 0 230 0 230 -30 0 -30 0 0 -90z m-43
-116 c71 -46 50 -177 -31 -204 -74 -24 -146 30 -146 110 0 97 96 147 177 94z"/>
<path d="M2200 3485 l0 -215 30 0 29 0 3 153 3 152 76 -125 c41 -69 82 -126
91 -128 11 -2 40 36 95 128 l78 130 3 -155 3 -155 29 0 30 0 0 215 0 215 -28
0 c-26 0 -35 -12 -106 -135 -43 -74 -84 -142 -91 -151 -10 -14 -24 5 -101 135
-80 137 -91 151 -116 151 l-28 0 0 -215z"/>
<path d="M2825 3585 c-22 -8 -41 -15 -42 -15 -6 0 -2 -26 6 -39 7 -11 16 -11
55 4 72 28 146 2 146 -50 0 -20 -6 -23 -74 -28 -77 -6 -129 -25 -140 -52 -14
-37 -6 -86 18 -110 40 -40 146 -46 176 -10 16 19 30 19 30 0 0 -9 9 -15 25
-15 l25 0 0 120 c0 86 -4 129 -15 149 -28 56 -124 77 -210 46z m165 -204 c0
-62 -104 -97 -150 -51 -24 24 -24 29 -4 58 13 19 24 22 85 22 l69 0 0 -29z"/>
<path d="M3114 3582 c3 -9 35 -82 70 -162 62 -143 64 -145 97 -148 l34 -3 68
155 c37 85 67 160 67 166 0 6 -12 10 -26 8 -23 -3 -32 -18 -81 -131 -31 -70
-59 -124 -64 -120 -4 4 -30 63 -59 131 -50 117 -54 122 -82 122 -23 0 -28 -4
-24 -18z"/>
<path d="M3517 3593 c-4 -3 -7 -78 -7 -165 l0 -158 29 0 28 0 5 103 c3 61 10
111 18 124 15 24 51 43 80 43 16 0 20 7 20 31 0 30 -1 31 -32 25 -18 -3 -45
-15 -60 -26 l-28 -21 0 26 c0 20 -5 25 -23 25 -13 0 -27 -3 -30 -7z"/>
<path d="M3830 3578 c-81 -42 -111 -138 -69 -224 40 -83 145 -116 229 -72 63
32 90 77 90 148 0 96 -59 160 -152 167 -41 3 -63 -1 -98 -19z m163 -68 c21
-24 27 -40 27 -78 0 -56 -20 -89 -66 -108 -99 -42 -190 68 -138 167 33 64 127
74 177 19z"/>
<path d="M4600 3435 l0 -165 25 0 25 0 0 165 0 165 -25 0 -25 0 0 -165z"/>
<path d="M4770 3435 l0 -165 30 0 30 0 0 100 c0 120 13 154 64 168 18 6 45 7
60 5 47 -9 56 -36 56 -160 l0 -113 29 0 28 0 5 103 c5 116 16 143 64 163 42
18 78 10 104 -23 17 -22 20 -41 20 -134 l0 -109 30 0 30 0 0 110 c0 121 -13
168 -52 194 -55 36 -137 32 -187 -9 -21 -19 -30 -22 -34 -12 -8 20 -70 47
-109 47 -18 0 -50 -9 -70 -19 -36 -20 -36 -20 -41 0 -3 13 -14 19 -31 19 l-26
0 0 -165z"/>
<path d="M5490 3578 c-81 -42 -111 -138 -69 -224 40 -83 145 -116 229 -72 63
32 90 77 90 148 0 96 -59 160 -152 167 -41 3 -63 -1 -98 -19z m163 -68 c21
-24 27 -40 27 -78 0 -56 -20 -89 -66 -108 -93 -39 -180 54 -142 154 28 75 126
93 181 32z"/>
<path d="M5870 3589 c-45 -18 -70 -50 -70 -89 0 -51 30 -76 114 -94 38 -8 75
-21 83 -29 22 -22 1 -53 -42 -61 -35 -7 -110 8 -132 26 -8 6 -15 3 -22 -11
-18 -33 -13 -40 41 -56 68 -20 114 -19 164 4 68 31 81 107 25 148 -9 6 -43 17
-76 23 -77 15 -95 25 -95 54 0 37 48 53 118 38 57 -12 71 -7 72 24 0 26 -131
42 -180 23z"/>
</g>
</svg>
