<svg data-v-423bf9ae="" xmlns="http://www.w3.org/2000/svg" viewBox="0 0 627 90" class="iconLeft"><!----><!----><!----><g data-v-423bf9ae="" id="96c75c0b-b043-4078-8b71-fc3c25d8b576" fill="#B69E97" transform="matrix(5.612721889848748,0,0,5.612721889848748,132.92732340172847,-1.5575315116192954)"><path d="M11.90 13.55L10.56 13.55L10.54 6.41L7 12.36L6.36 12.36L2.81 6.45L2.81 13.55L1.47 13.55L1.47 3.75L2.62 3.75L6.71 10.64L10.74 3.75L11.89 3.75L11.90 13.55ZM17.35 6.06L17.35 6.06Q18.89 6.06 19.71 6.82L19.71 6.82L19.71 6.82Q20.52 7.57 20.52 9.07L20.52 9.07L20.52 13.55L19.25 13.55L19.25 12.57L19.25 12.57Q18.91 13.09 18.29 13.36L18.29 13.36L18.29 13.36Q17.67 13.64 16.81 13.64L16.81 13.64L16.81 13.64Q15.57 13.64 14.82 13.03L14.82 13.03L14.82 13.03Q14.07 12.43 14.07 11.45L14.07 11.45L14.07 11.45Q14.07 10.47 14.78 9.88L14.78 9.88L14.78 9.88Q15.50 9.28 17.05 9.28L17.05 9.28L19.18 9.28L19.18 9.02L19.18 9.02Q19.18 8.15 18.68 7.69L18.68 7.69L18.68 7.69Q18.17 7.22 17.19 7.22L17.19 7.22L17.19 7.22Q16.53 7.22 15.90 7.44L15.90 7.44L15.90 7.44Q15.27 7.66 14.84 8.02L14.84 8.02L14.28 7.01L14.28 7.01Q14.85 6.55 15.65 6.31L15.65 6.31L15.65 6.31Q16.45 6.06 17.35 6.06L17.35 6.06ZM17.04 12.60L17.04 12.60Q17.81 12.60 18.37 12.26L18.37 12.26L18.37 12.26Q18.93 11.91 19.18 11.28L19.18 11.28L19.18 10.25L17.11 10.25L17.11 10.25Q15.40 10.25 15.40 11.40L15.40 11.40L15.40 11.40Q15.40 11.96 15.83 12.28L15.83 12.28L15.83 12.28Q16.27 12.60 17.04 12.60L17.04 12.60ZM28.27 6.13L29.58 6.13L26.33 13.55L24.96 13.55L21.71 6.13L23.11 6.13L25.66 12.08L28.27 6.13ZM32.13 7.38L32.13 7.38Q32.48 6.73 33.17 6.40L33.17 6.40L33.17 6.40Q33.85 6.06 34.83 6.06L34.83 6.06L34.83 7.36L34.83 7.36Q34.72 7.35 34.52 7.35L34.52 7.35L34.52 7.35Q33.43 7.35 32.81 8.00L32.81 8.00L32.81 8.00Q32.19 8.65 32.19 9.86L32.19 9.86L32.19 13.55L30.84 13.55L30.84 6.13L32.13 6.13L32.13 7.38ZM39.76 13.64L39.76 13.64Q38.65 13.64 37.77 13.15L37.77 13.15L37.77 13.15Q36.89 12.66 36.39 11.79L36.39 11.79L36.39 11.79Q35.90 10.93 35.90 9.84L35.90 9.84L35.90 9.84Q35.90 8.75 36.39 7.89L36.39 7.89L36.39 7.89Q36.89 7.03 37.77 6.54L37.77 6.54L37.77 6.54Q38.65 6.06 39.76 6.06L39.76 6.06L39.76 6.06Q40.87 6.06 41.74 6.54L41.74 6.54L41.74 6.54Q42.62 7.03 43.11 7.89L43.11 7.89L43.11 7.89Q43.61 8.75 43.61 9.84L43.61 9.84L43.61 9.84Q43.61 10.93 43.11 11.79L43.11 11.79L43.11 11.79Q42.62 12.66 41.74 13.15L41.74 13.15L41.74 13.15Q40.87 13.64 39.76 13.64L39.76 13.64ZM39.76 12.46L39.76 12.46Q40.47 12.46 41.04 12.13L41.04 12.13L41.04 12.13Q41.61 11.80 41.93 11.21L41.93 11.21L41.93 11.21Q42.25 10.61 42.25 9.84L42.25 9.84L42.25 9.84Q42.25 9.07 41.93 8.48L41.93 8.48L41.93 8.48Q41.61 7.88 41.04 7.56L41.04 7.56L41.04 7.56Q40.47 7.24 39.76 7.24L39.76 7.24L39.76 7.24Q39.05 7.24 38.48 7.56L38.48 7.56L38.48 7.56Q37.91 7.88 37.58 8.48L37.58 8.48L37.58 8.48Q37.25 9.07 37.25 9.84L37.25 9.84L37.25 9.84Q37.25 10.61 37.58 11.21L37.58 11.21L37.58 11.21Q37.91 11.80 38.48 12.13L38.48 12.13L38.48 12.13Q39.05 12.46 39.76 12.46L39.76 12.46ZM51.13 3.16L52.47 3.16L52.47 13.55L51.18 13.55L51.18 12.38L51.18 12.38Q50.74 12.99 50.05 13.31L50.05 13.31L50.05 13.31Q49.36 13.64 48.54 13.64L48.54 13.64L48.54 13.64Q47.46 13.64 46.61 13.16L46.61 13.16L46.61 13.16Q45.75 12.68 45.27 11.82L45.27 11.82L45.27 11.82Q44.79 10.96 44.79 9.84L44.79 9.84L44.79 9.84Q44.79 8.72 45.27 7.87L45.27 7.87L45.27 7.87Q45.75 7.01 46.61 6.54L46.61 6.54L46.61 6.54Q47.46 6.06 48.54 6.06L48.54 6.06L48.54 6.06Q49.34 6.06 50.01 6.36L50.01 6.36L50.01 6.36Q50.68 6.66 51.13 7.25L51.13 7.25L51.13 3.16ZM48.65 12.46L48.65 12.46Q49.35 12.46 49.92 12.13L49.92 12.13L49.92 12.13Q50.50 11.80 50.82 11.21L50.82 11.21L50.82 11.21Q51.14 10.61 51.14 9.84L51.14 9.84L51.14 9.84Q51.14 9.07 50.82 8.48L50.82 8.48L50.82 8.48Q50.50 7.88 49.92 7.56L49.92 7.56L49.92 7.56Q49.35 7.24 48.65 7.24L48.65 7.24L48.65 7.24Q47.94 7.24 47.37 7.56L47.37 7.56L47.37 7.56Q46.80 7.88 46.47 8.48L46.47 8.48L46.47 8.48Q46.14 9.07 46.14 9.84L46.14 9.84L46.14 9.84Q46.14 10.61 46.47 11.21L46.47 11.21L46.47 11.21Q46.80 11.80 47.37 12.13L47.37 12.13L47.37 12.13Q47.94 12.46 48.65 12.46L48.65 12.46ZM55.02 13.55L55.02 6.13L56.36 6.13L56.36 13.55L55.02 13.55ZM55.69 4.70L55.69 4.70Q55.30 4.70 55.04 4.45L55.04 4.45L55.04 4.45Q54.78 4.20 54.78 3.84L54.78 3.84L54.78 3.84Q54.78 3.47 55.04 3.21L55.04 3.21L55.04 3.21Q55.30 2.95 55.69 2.95L55.69 2.95L55.69 2.95Q56.08 2.95 56.34 3.20L56.34 3.20L56.34 3.20Q56.60 3.44 56.60 3.81L56.60 3.81L56.60 3.81Q56.60 4.19 56.34 4.45L56.34 4.45L56.34 4.45Q56.08 4.70 55.69 4.70L55.69 4.70ZM68.21 6.06L68.21 6.06Q69.61 6.06 70.43 6.87L70.43 6.87L70.43 6.87Q71.25 7.69 71.25 9.28L71.25 9.28L71.25 13.55L69.90 13.55L69.90 9.44L69.90 9.44Q69.90 8.36 69.41 7.81L69.41 7.81L69.41 7.81Q68.91 7.27 67.98 7.27L67.98 7.27L67.98 7.27Q66.96 7.27 66.36 7.90L66.36 7.90L66.36 7.90Q65.76 8.54 65.76 9.73L65.76 9.73L65.76 13.55L64.41 13.55L64.41 9.44L64.41 9.44Q64.41 8.36 63.92 7.81L63.92 7.81L63.92 7.81Q63.42 7.27 62.50 7.27L62.50 7.27L62.50 7.27Q61.47 7.27 60.87 7.90L60.87 7.90L60.87 7.90Q60.27 8.54 60.27 9.73L60.27 9.73L60.27 13.55L58.93 13.55L58.93 6.13L60.21 6.13L60.21 7.24L60.21 7.24Q60.62 6.66 61.28 6.36L61.28 6.36L61.28 6.36Q61.94 6.06 62.78 6.06L62.78 6.06L62.78 6.06Q63.64 6.06 64.32 6.41L64.32 6.41L64.32 6.41Q64.99 6.76 65.35 7.43L65.35 7.43L65.35 7.43Q65.77 6.79 66.52 6.43L66.52 6.43L66.52 6.43Q67.27 6.06 68.21 6.06L68.21 6.06ZM76.90 13.64L76.90 13.64Q75.80 13.64 74.91 13.15L74.91 13.15L74.91 13.15Q74.03 12.66 73.53 11.79L73.53 11.79L73.53 11.79Q73.04 10.93 73.04 9.84L73.04 9.84L73.04 9.84Q73.04 8.75 73.53 7.89L73.53 7.89L73.53 7.89Q74.03 7.03 74.91 6.54L74.91 6.54L74.91 6.54Q75.80 6.06 76.90 6.06L76.90 6.06L76.90 6.06Q78.01 6.06 78.88 6.54L78.88 6.54L78.88 6.54Q79.76 7.03 80.26 7.89L80.26 7.89L80.26 7.89Q80.75 8.75 80.75 9.84L80.75 9.84L80.75 9.84Q80.75 10.93 80.26 11.79L80.26 11.79L80.26 11.79Q79.76 12.66 78.88 13.15L78.88 13.15L78.88 13.15Q78.01 13.64 76.90 13.64L76.90 13.64ZM76.90 12.46L76.90 12.46Q77.62 12.46 78.18 12.13L78.18 12.13L78.18 12.13Q78.75 11.80 79.07 11.21L79.07 11.21L79.07 11.21Q79.39 10.61 79.39 9.84L79.39 9.84L79.39 9.84Q79.39 9.07 79.07 8.48L79.07 8.48L79.07 8.48Q78.75 7.88 78.18 7.56L78.18 7.56L78.18 7.56Q77.62 7.24 76.90 7.24L76.90 7.24L76.90 7.24Q76.19 7.24 75.62 7.56L75.62 7.56L75.62 7.56Q75.05 7.88 74.73 8.48L74.73 8.48L74.73 8.48Q74.40 9.07 74.40 9.84L74.40 9.84L74.40 9.84Q74.40 10.61 74.73 11.21L74.73 11.21L74.73 11.21Q75.05 11.80 75.62 12.13L75.62 12.13L75.62 12.13Q76.19 12.46 76.90 12.46L76.90 12.46ZM84.74 13.64L84.74 13.64Q83.83 13.64 82.99 13.39L82.99 13.39L82.99 13.39Q82.15 13.15 81.68 12.77L81.68 12.77L82.24 11.70L82.24 11.70Q82.73 12.05 83.43 12.26L83.43 12.26L83.43 12.26Q84.13 12.47 84.84 12.47L84.84 12.47L84.84 12.47Q86.60 12.47 86.60 11.47L86.60 11.47L86.60 11.47Q86.60 11.13 86.37 10.93L86.37 10.93L86.37 10.93Q86.13 10.74 85.77 10.65L85.77 10.65L85.77 10.65Q85.41 10.56 84.76 10.44L84.76 10.44L84.76 10.44Q83.86 10.30 83.29 10.12L83.29 10.12L83.29 10.12Q82.73 9.94 82.32 9.51L82.32 9.51L82.32 9.51Q81.91 9.07 81.91 8.29L81.91 8.29L81.91 8.29Q81.91 7.28 82.75 6.67L82.75 6.67L82.75 6.67Q83.59 6.06 85.01 6.06L85.01 6.06L85.01 6.06Q85.75 6.06 86.49 6.24L86.49 6.24L86.49 6.24Q87.23 6.43 87.71 6.73L87.71 6.73L87.14 7.80L87.14 7.80Q86.23 7.21 84.99 7.21L84.99 7.21L84.99 7.21Q84.14 7.21 83.69 7.49L83.69 7.49L83.69 7.49Q83.24 7.77 83.24 8.23L83.24 8.23L83.24 8.23Q83.24 8.60 83.50 8.81L83.50 8.81L83.50 8.81Q83.75 9.02 84.12 9.11L84.12 9.11L84.12 9.11Q84.49 9.21 85.16 9.34L85.16 9.34L85.16 9.34Q86.06 9.49 86.61 9.67L86.61 9.67L86.61 9.67Q87.16 9.84 87.56 10.26L87.56 10.26L87.56 10.26Q87.95 10.68 87.95 11.44L87.95 11.44L87.95 11.44Q87.95 12.45 87.09 13.04L87.09 13.04L87.09 13.04Q86.23 13.64 84.74 13.64L84.74 13.64Z"></path></g><!----><g data-v-423bf9ae="" id="57fdedd3-0a5a-4dc9-a1fe-a98daaf1d7ab" transform="matrix(1.4256069731532488,0,0,1.4256069731532488,-9.781061069594372,-25.8460643227815)" stroke="none" fill="#B69E97"><path d="M89.405 18.435h-78.81A3.1 3.1 0 0 0 7.5 21.53v56.941a3.1 3.1 0 0 0 3.095 3.095h78.811a3.099 3.099 0 0 0 3.095-3.095V21.529a3.1 3.1 0 0 0-3.096-3.094zm-78.81 1.238h78.811a1.86 1.86 0 0 1 1.857 1.856v9.075c-.068-.01-.136-.021-.207-.021H8.951c-.073 0-.143.011-.213.021v-9.076c0-1.022.833-1.855 1.857-1.855zM91.263 77.14a.207.207 0 0 1-.207.206H8.951a.206.206 0 0 1-.206-.206V32.027c0-.113.093-.206.206-.206h82.104c.114 0 .207.093.207.206V77.14zm-1.858 3.187h-78.81a1.855 1.855 0 0 1-1.848-1.764c.067.01.135.021.204.021h82.104c.068 0 .133-.011.197-.02a1.854 1.854 0 0 1-1.847 1.763z"></path><path d="M28.178 27.787c1.45 0 2.63-1.18 2.63-2.63 0-1.451-1.18-2.631-2.63-2.631s-2.631 1.18-2.631 2.631c0 1.45 1.181 2.63 2.631 2.63zm0-4.022a1.394 1.394 0 0 1 0 2.786 1.394 1.394 0 0 1 0-2.786zM21.458 27.787a2.633 2.633 0 0 0 2.631-2.63 2.634 2.634 0 0 0-2.631-2.631c-1.45 0-2.63 1.18-2.63 2.631 0 1.45 1.18 2.63 2.63 2.63zm0-4.022a1.393 1.393 0 1 1 0 2.787 1.393 1.393 0 0 1 0-2.787zM14.738 27.787a2.633 2.633 0 0 0 2.631-2.63 2.634 2.634 0 0 0-2.631-2.631c-1.45 0-2.63 1.18-2.63 2.631 0 1.45 1.18 2.63 2.63 2.63zm0-4.022a1.393 1.393 0 1 1 0 2.787 1.393 1.393 0 0 1 0-2.787zM26.598 65.915c-.624 0-1.395-.429-2.289-1.276-1.605-1.519-2.16-2.371-1.2-3.405l8.79-8.811-8.774-8.782c-.676-.676-.57-1.195-.401-1.57.242-.544.814-1.117 1.479-1.781.829-.829 1.542-1.542 2.241-1.542.342 0 .679.172 1.033.526l11.769 11.755c.311.254.521.659.564 1.134.048.537-.134 1.152-.452 1.533L27.53 65.514c-.287.273-.589.401-.932.401zM23.846 42.57c-.009 0 .027.068.154.194l9.211 9.221a.62.62 0 0 1 0 .875L24 62.093a.804.804 0 0 0-.133.166c.012.047.125.377 1.292 1.48.979.927 1.42.938 1.438.938v.619l.01-.62-.001.001c-.003 0 .02-.012.061-.05L38.444 52.86c.061-.077.151-.357.131-.589a.444.444 0 0 0-.162-.328L26.601 40.148c-.144-.143-.215-.171-.215-.171-.182.06-.886.764-1.307 1.184-.531.532-1.077 1.078-1.227 1.413-.002-.003-.004-.004-.006-.004zM55.834 71.436H40.498c-1.594 0-1.92-1.234-1.92-3.088s.326-3.088 1.92-3.088h15.336c1.503 0 1.787 1.085 1.787 3.088 0 2.048-.275 3.088-1.787 3.088zm-15.336-4.939c-.366 0-.683 0-.683 1.851s.316 1.851.683 1.851h15.336c.354 0 .55 0 .55-1.851s-.219-1.851-.55-1.851H40.498z"></path></g><!----></svg>